<?xml version="1.0" encoding="UTF-8" standalone="no"?>
<!DOCTYPE svg PUBLIC "-//W3C//DTD SVG 1.1//EN"
 "http://www.w3.org/Graphics/SVG/1.1/DTD/svg11.dtd">
<!-- Generated by graphviz version 2.36.0 (20140111.2315)
 -->
<!-- Title: controllers_diagram Pages: 1 -->
<svg width="409pt" height="222pt"
 viewBox="0.00 0.00 409.00 222.00" xmlns="http://www.w3.org/2000/svg" xmlns:xlink="http://www.w3.org/1999/xlink">
<g id="graph0" class="graph" transform="scale(1 1) rotate(0) translate(4 218)">
<title>controllers_diagram</title>
<polygon fill="none" stroke="none" points="-4,4 -4,-218 405,-218 405,4 -4,4"/>
<!-- _diagram_info -->
<g id="node1" class="node"><title>_diagram_info</title>
<text text-anchor="start" x="195" y="-63.6" font-family="Times,serif" font-size="13.00">Controllers diagram</text>
<text text-anchor="start" x="195" y="-49.6" font-family="Times,serif" font-size="13.00">Date: Mar 30 2016 &#45; 01:41</text>
<text text-anchor="start" x="195" y="-35.6" font-family="Times,serif" font-size="13.00">Migration version: 20160328222520</text>
<text text-anchor="start" x="195" y="-21.6" font-family="Times,serif" font-size="13.00">Generated by RailRoady 1.4.2</text>
<text text-anchor="start" x="195" y="-7.6" font-family="Times,serif" font-size="13.00">http://railroady.prestonlee.com</text>
</g>
<!-- DonorProfilesController -->
<g id="node2" class="node"><title>DonorProfilesController</title>
<path fill="none" stroke="black" d="M12,-0.5C12,-0.5 137,-0.5 137,-0.5 143,-0.5 149,-6.5 149,-12.5 149,-12.5 149,-186.5 149,-186.5 149,-192.5 143,-198.5 137,-198.5 137,-198.5 12,-198.5 12,-198.5 6,-198.5 -1.42109e-14,-192.5 -1.42109e-14,-186.5 -1.42109e-14,-186.5 -1.42109e-14,-12.5 -1.42109e-14,-12.5 -1.42109e-14,-6.5 6,-0.5 12,-0.5"/>
<text text-anchor="middle" x="74.5" y="-183.3" font-family="Times,serif" font-size="14.00">DonorProfilesController</text>
<polyline fill="none" stroke="black" points="-1.42109e-14,-175.5 149,-175.5 "/>
<text text-anchor="start" x="8" y="-160.3" font-family="Times,serif" font-size="14.00">create</text>
<text text-anchor="start" x="8" y="-145.3" font-family="Times,serif" font-size="14.00">destroy</text>
<text text-anchor="start" x="8" y="-130.3" font-family="Times,serif" font-size="14.00">donor_profile_params</text>
<text text-anchor="start" x="8" y="-115.3" font-family="Times,serif" font-size="14.00">edit</text>
<text text-anchor="start" x="8" y="-100.3" font-family="Times,serif" font-size="14.00">index</text>
<text text-anchor="start" x="8" y="-85.3" font-family="Times,serif" font-size="14.00">new</text>
<text text-anchor="start" x="8" y="-70.3" font-family="Times,serif" font-size="14.00">show</text>
<text text-anchor="start" x="8" y="-55.3" font-family="Times,serif" font-size="14.00">update</text>
<polyline fill="none" stroke="black" points="-1.42109e-14,-47.5 149,-47.5 "/>
<polyline fill="none" stroke="black" points="-1.42109e-14,-23.5 149,-23.5 "/>
<text text-anchor="start" x="8" y="-8.3" font-family="Times,serif" font-size="14.00">_layout</text>
</g>
<!-- ApplicationController -->
<g id="node3" class="node"><title>ApplicationController</title>
<path fill="none" stroke="black" d="M199,-119.5C199,-119.5 311,-119.5 311,-119.5 317,-119.5 323,-125.5 323,-131.5 323,-131.5 323,-201.5 323,-201.5 323,-207.5 317,-213.5 311,-213.5 311,-213.5 199,-213.5 199,-213.5 193,-213.5 187,-207.5 187,-201.5 187,-201.5 187,-131.5 187,-131.5 187,-125.5 193,-119.5 199,-119.5"/>
<text text-anchor="middle" x="255" y="-198.3" font-family="Times,serif" font-size="14.00">ApplicationController</text>
<polyline fill="none" stroke="black" points="187,-190.5 323,-190.5 "/>
<polyline fill="none" stroke="black" points="187,-166.5 323,-166.5 "/>
<polyline fill="none" stroke="black" points="187,-142.5 323,-142.5 "/>
<text text-anchor="start" x="195" y="-127.3" font-family="Times,serif" font-size="14.00">_layout</text>
</g>
</g>
</svg>
