<?xml version="1.0" encoding="UTF-8" standalone="no"?>
<!DOCTYPE svg PUBLIC "-//W3C//DTD SVG 1.1//EN"
 "http://www.w3.org/Graphics/SVG/1.1/DTD/svg11.dtd">
<!-- Generated by graphviz version 2.36.0 (20140111.2315)
 -->
<!-- Title: models_diagram Pages: 1 -->
<svg width="379pt" height="146pt"
 viewBox="0.00 0.00 379.00 146.00" xmlns="http://www.w3.org/2000/svg" xmlns:xlink="http://www.w3.org/1999/xlink">
<g id="graph0" class="graph" transform="scale(1 1) rotate(0) translate(4 142)">
<title>models_diagram</title>
<polygon fill="none" stroke="none" points="-4,4 -4,-142 375,-142 375,4 -4,4"/>
<!-- _diagram_info -->
<g id="node1" class="node"><title>_diagram_info</title>
<text text-anchor="start" x="7" y="-93.6" font-family="Times,serif" font-size="13.00">Models diagram</text>
<text text-anchor="start" x="7" y="-79.6" font-family="Times,serif" font-size="13.00">Date: Mar 30 2016 &#45; 01:41</text>
<text text-anchor="start" x="7" y="-65.6" font-family="Times,serif" font-size="13.00">Migration version: 20160328222520</text>
<text text-anchor="start" x="7" y="-51.6" font-family="Times,serif" font-size="13.00">Generated by RailRoady 1.4.2</text>
<text text-anchor="start" x="7" y="-37.6" font-family="Times,serif" font-size="13.00">http://railroady.prestonlee.com</text>
</g>
<!-- DonorProfile -->
<g id="node2" class="node"><title>DonorProfile</title>
<path fill="none" stroke="black" d="M243,-1C243,-1 359,-1 359,-1 365,-1 371,-7 371,-13 371,-13 371,-125 371,-125 371,-131 365,-137 359,-137 359,-137 243,-137 243,-137 237,-137 231,-131 231,-125 231,-125 231,-13 231,-13 231,-7 237,-1 243,-1"/>
<text text-anchor="middle" x="301" y="-121.8" font-family="Times,serif" font-size="14.00">DonorProfile</text>
<polyline fill="none" stroke="black" points="231,-114 371,-114 "/>
<text text-anchor="start" x="239" y="-98.8" font-family="Times,serif" font-size="14.00">id :INTEGER</text>
<text text-anchor="start" x="239" y="-83.8" font-family="Times,serif" font-size="14.00">first_name :varchar</text>
<text text-anchor="start" x="239" y="-68.8" font-family="Times,serif" font-size="14.00">last_name :varchar</text>
<text text-anchor="start" x="239" y="-53.8" font-family="Times,serif" font-size="14.00">description :text</text>
<text text-anchor="start" x="239" y="-38.8" font-family="Times,serif" font-size="14.00">date_created :datetime</text>
<text text-anchor="start" x="239" y="-23.8" font-family="Times,serif" font-size="14.00">created_at :datetime</text>
<text text-anchor="start" x="239" y="-8.8" font-family="Times,serif" font-size="14.00">updated_at :datetime</text>
</g>
</g>
</svg>
